<svg xmlns="http://www.w3.org/2000/svg" version="1.1" xmlns:xlink="http://www.w3.org/1999/xlink" xmlns:svgjs="http://svgjs.com/svgjs" width="512" height="512" x="0" y="0" viewBox="0 0 512 512" style="enable-background:new 0 0 512 512" xml:space="preserve" class=""><g><path d="M473.438 224.938h0M473.438 162.812h0M473.438 100.688h0M287.062 162.812h0M287.062 100.688h0M473.438 38.562h0M411.312 224.938h0M349.188 224.938h0M287.062 224.938h0M411.312 38.562h0M349.188 38.562h0M287.062 38.562h0M473.438 473.438h0M473.438 411.312h0M473.438 349.188h0M287.062 411.312h0M287.062 349.188h0M473.438 287.062h0M411.312 473.438h0M349.188 473.438h0M287.062 473.438h0M411.312 287.062h0M349.188 287.062h0M287.062 287.062h0M7.5 430.781V489.5c0 8.284 6.716 15 15 15h467c8.284 0 15-6.716 15-15v-467c0-8.284-6.716-15-15-15H271c-8.284 0-15 6.716-15 15v124.781" style="stroke-width:15;stroke-linecap:round;stroke-linejoin:round;stroke-miterlimit:10;" fill="none" stroke="#ae2024" stroke-width="15" stroke-linecap="round" stroke-linejoin="round" stroke-miterlimit="10" data-original="#000000" class=""></path><path d="M256 181.281V256H22.5c-8.284 0-15 6.716-15 15v124.781M256 504.5V256h248.5M224.938 473.438h0M224.938 411.312h0M224.938 349.188h0M38.562 411.312h0M38.562 349.188h0M224.938 287.062h0M162.812 473.438h0M100.688 473.438h0M38.562 473.438h0M162.812 287.062h0M100.688 287.062h0M38.562 287.062h0M57.408 85.156H38.562M162.812 85.156H92.408M38.562 131.75h124.25M162.812 178.344H38.562M162.812 224.938H38.562M256 224.938h-62.125M193.875 85.156H256M38.562 38.562h124.25M256 38.562h-62.125" style="stroke-width:15;stroke-linecap:round;stroke-linejoin:round;stroke-miterlimit:10;" fill="none" stroke="#ae2024" stroke-width="15" stroke-linecap="round" stroke-linejoin="round" stroke-miterlimit="10" data-original="#000000" class=""></path><path d="M38.562 256V35.531c0-6.904-5.596-12.5-12.5-12.5H20c-6.904 0-12.5 5.596-12.5 12.5V271M193.875 256V35.531c0-6.904-5.596-12.5-12.5-12.5h-6.062c-6.904 0-12.5 5.596-12.5 12.5V256" style="stroke-width:15;stroke-linecap:round;stroke-linejoin:round;stroke-miterlimit:10;" fill="none" stroke="#ae2024" stroke-width="15" stroke-linecap="round" stroke-linejoin="round" stroke-miterlimit="10" data-original="#000000" class=""></path></g></svg>