<svg xmlns="http://www.w3.org/2000/svg" version="1.1" xmlns:xlink="http://www.w3.org/1999/xlink" xmlns:svgjs="http://svgjs.com/svgjs" width="512" height="512" x="0" y="0" viewBox="0 0 512 512" style="enable-background:new 0 0 512 512" xml:space="preserve" class=""><g><path d="M494.933 0H17.067C7.641 0 0 7.641 0 17.067v17.067C0 43.559 7.641 51.2 17.067 51.2h17.067v409.6H17.067C7.641 460.8 0 468.441 0 477.867v17.067C0 504.359 7.641 512 17.067 512h477.867c9.426 0 17.067-7.641 17.067-17.067V17.067C512 7.641 504.359 0 494.933 0zm-68.266 460.8V51.2H460.8v409.6zm-85.334 0V341.333h34.133V460.8zm-85.333 0V341.333h34.133V460.8zm-85.333 0V341.333H204.8V460.8zm-85.334 0V51.2h34.133v409.6zm51.2-409.6H153.6v409.6h-17.067zm68.267 0v59.733h-34.133V51.2zm85.333 0v59.733H256V51.2zm85.334 0v59.733h-34.133V51.2zM332.8 324.267H170.667V307.2h204.8v17.067zM213.333 128h162.133v17.067h-204.8V128zm-42.666 34.133h204.8v128h-204.8zm153.6-51.2H307.2V51.2h17.067zm-85.334 0h-17.067V51.2h17.067zm-17.066 230.4h17.067V460.8h-17.067zm85.333 0h17.067V460.8H307.2zm85.333-8.533V51.2H409.6v409.6h-17.067zm85.334-281.6h17.067v409.6h-17.067zm-460.8-34.133h477.867v17.067H17.067zM51.2 51.2h17.067v409.6H51.2zM17.067 494.933v-17.067h477.867v17.067z" fill="#ae2024" data-original="#000000" class=""></path></g></svg>