<svg xmlns="http://www.w3.org/2000/svg" version="1.1" xmlns:xlink="http://www.w3.org/1999/xlink" xmlns:svgjs="http://svgjs.com/svgjs" width="512" height="512" x="0" y="0" viewBox="0 0 480 480" style="enable-background:new 0 0 512 512" xml:space="preserve"><g><path d="M472 96H328a8 8 0 0 0-8 8v184H144v-24a8 8 0 0 0-8-8h-24v16h16v16H96v-32H80v32H48v-16h16v-16H40a8 8 0 0 0-8 8v24H8a8 8 0 0 0-8 8v176a8 8 0 0 0 8 8h464a8 8 0 0 0 8-8V104a8 8 0 0 0-8-8zm-136 16h128v96H336zm-16 224H176v-32h144zM16 304h144v32H16zm0 48h144v112H16zm160 0h64v112h-64zm80 0h64v112h-64zm80 112V224h128v240zm0 0" fill="#ae2024" data-original="#000000"></path><path d="M352 144h16v32h-16zM352 256h16v32h-16zM48 320a8 8 0 1 1-16 0 8 8 0 0 1 16 0zM80 320a8 8 0 1 1-16 0 8 8 0 0 1 16 0zM112 320a8 8 0 1 1-16 0 8 8 0 0 1 16 0zM144 320a8 8 0 1 1-16 0 8 8 0 0 1 16 0zM8 152h160a8 8 0 0 0 8-8v-24a8.001 8.001 0 0 0-2.344-5.656l-32-32A8.001 8.001 0 0 0 136 80h-8V8a8 8 0 0 0-8-8H56a8 8 0 0 0-8 8v72h-8a8.001 8.001 0 0 0-5.656 2.344l-32 32A8.001 8.001 0 0 0 0 120v24a8 8 0 0 0 8 8zM64 16h48v64H64zM16 123.313 43.313 96h89.374L160 123.313V136H16zM136 368H40a8 8 0 0 0-8 8v64a8 8 0 0 0 8 8h96a8 8 0 0 0 8-8v-64a8 8 0 0 0-8-8zm-8 64H48v-48h80zM232 312h32v16h-32zM208 392h16v32h-16zM272 392h16v32h-16zM192 200h48a8 8 0 0 0 8-8v-8c-.055-14.547-9.914-27.227-24-30.863V0h-16v153.137c-14.086 3.636-23.945 16.316-24 30.863v8a8 8 0 0 0 8 8zm24-32c8.836 0 16 7.164 16 16h-32c0-8.836 7.164-16 16-16zm0 0" fill="#ae2024" data-original="#000000"></path><path d="M248 136h48a8 8 0 0 0 8-8v-8c-.055-14.547-9.914-27.227-24-30.863V0h-16v89.137c-14.086 3.636-23.945 16.316-24 30.863v8a8 8 0 0 0 8 8zm24-32c8.836 0 16 7.164 16 16h-32c0-8.836 7.164-16 16-16zm0 0" fill="#ae2024" data-original="#000000"></path></g></svg>