<svg xmlns="http://www.w3.org/2000/svg" version="1.1" xmlns:xlink="http://www.w3.org/1999/xlink" xmlns:svgjs="http://svgjs.com/svgjs" width="512" height="512" x="0" y="0" viewBox="0 0 512 512" style="enable-background:new 0 0 512 512" xml:space="preserve" class=""><g><path d="M5.215 302.152c12.129 33.356 43.629 55.73 79.12 56.2L68.317 502.527a8.547 8.547 0 0 0 2.125 6.633 8.54 8.54 0 0 0 6.36 2.84h102.398a8.54 8.54 0 0 0 6.36-2.84 8.547 8.547 0 0 0 2.125-6.633l-16.02-144.175c46.703-.586 84.274-38.579 84.336-85.286v-8.53a8.534 8.534 0 0 0-8.535-8.536h-61.758a140.603 140.603 0 0 0 61.758-119.465C247.465 61.25 193.879 0 128 0S8.535 61.25 8.535 136.535A140.603 140.603 0 0 0 70.293 256H8.535A8.534 8.534 0 0 0 0 264.535v8.531a84.699 84.699 0 0 0 5.043 28.618c.059.16.102.312.172.468zm81.117 192.782 15.176-136.536h52.984l15.176 136.536zm-60.73-358.399C25.602 70.656 71.535 17.066 128 17.066s102.398 53.59 102.398 119.47C230.398 202.41 184.465 256 128 256a88.205 88.205 0 0 1-17.066-1.797v-40.871a8.537 8.537 0 0 1 8.53-8.531H128a8.543 8.543 0 0 1 8.535 8.531 8.533 8.533 0 1 0 17.067 0c-.016-14.129-11.47-25.582-25.602-25.598h-8.535c-14.13.016-25.582 11.47-25.598 25.598v35.7C54.16 232.577 25.602 188.43 25.602 136.534zm213.332 136.531c-.043 37.684-30.582 68.223-68.266 68.266H85.332a68.242 68.242 0 0 1-59.027-34.133h33.43c4.71 0 8.53-3.82 8.53-8.531a8.533 8.533 0 0 0-8.53-8.535H19.312a68.02 68.02 0 0 1-2.247-17.067zm0 0" fill="#ae2024" data-original="#000000"></path><path d="M93.867 307.2h8.531a8.533 8.533 0 1 0 0-17.067h-8.53a8.534 8.534 0 1 0 0 17.066zM68.266 93.867a8.506 8.506 0 0 0 6.035-2.5l34.133-34.133a8.545 8.545 0 0 0 2.328-8.3 8.535 8.535 0 0 0-14.395-3.766L62.234 79.301a8.53 8.53 0 0 0-1.851 9.297 8.541 8.541 0 0 0 7.883 5.27zM159.633 57.234c2.219-2.144 3.11-5.316 2.328-8.3s-3.113-5.313-6.094-6.094a8.537 8.537 0 0 0-8.3 2.328l-93.868 93.867a8.525 8.525 0 0 0-2.324 8.297 8.535 8.535 0 0 0 14.39 3.77zM503.465 298.668h-8.531v-8.535c0-4.711-3.82-8.531-8.536-8.531a8.532 8.532 0 0 0-8.53 8.53v8.536H460.8v-8.535c-.016-14.133-11.469-25.582-25.602-25.598h-85.332c-14.133.016-25.586 11.465-25.601 25.598v8.535h-17.067v-8.535c0-4.711-3.82-8.531-8.531-8.531a8.533 8.533 0 0 0-8.535 8.53v8.536h-8.531a8.533 8.533 0 1 0 0 17.066h8.53v8.532a8.534 8.534 0 1 0 17.067 0v-8.532h17.067V435.2c.011 9.422 7.648 17.055 17.066 17.067h68.27c9.418-.012 17.054-7.645 17.066-17.067v-8.531h17.066c9.422-.012 17.055-7.648 17.067-17.066v-93.868h17.066v8.532a8.533 8.533 0 1 0 17.067 0v-8.532h8.53a8.534 8.534 0 1 0 0-17.066zm-76.797-8.535c0-4.711 3.82-8.531 8.531-8.531a8.533 8.533 0 0 1 8.535 8.53v8.536h-17.066zm-17.066 145.066h-68.27V290.133c.004-4.711 3.824-8.528 8.535-8.531h61.305a25.237 25.237 0 0 0-1.57 8.53zm34.132-25.597h-17.066v-93.868h17.066zM494.934 0H307.199c-9.422.012-17.054 7.645-17.066 17.066v204.801c.012 9.422 7.644 17.055 17.066 17.067h187.735c9.421-.012 17.054-7.645 17.066-17.067v-204.8C511.988 7.644 504.355.011 494.934 0zm.004 170.668h-85.336V17.066h85.332zM392.534 17.066v153.602H307.2V17.066zM307.2 221.867v-34.133h187.742v34.133zm0 0" fill="#ae2024" data-original="#000000"></path><path d="M366.934 102.398h8.53a8.533 8.533 0 1 0 0-17.066h-8.53a8.534 8.534 0 1 0 0 17.066zM426.668 102.398h8.531a8.533 8.533 0 1 0 0-17.066h-8.531a8.534 8.534 0 1 0 0 17.066zm0 0" fill="#ae2024" data-original="#000000"></path></g></svg>