<svg xmlns="http://www.w3.org/2000/svg" version="1.1" xmlns:xlink="http://www.w3.org/1999/xlink" xmlns:svgjs="http://svgjs.com/svgjs" width="512" height="512" x="0" y="0" viewBox="0 0 512 512" style="enable-background:new 0 0 512 512" xml:space="preserve" class=""><g><path d="M151.984 191.902H8a7.99 7.99 0 0 1-8-8V8c0-4.426 3.574-8 8-8h143.984c4.422 0 8 3.574 8 8v175.902c0 4.426-3.578 8-8 8zM16 175.902h127.984V16H16zM439.938 191.902H295.952a7.99 7.99 0 0 1-8-8V8c0-4.426 3.574-8 8-8h143.985c4.421 0 8 3.574 8 8v175.902c0 4.426-3.579 8-8 8zm-135.985-16h127.985V16H303.952zM151.984 512H8a7.99 7.99 0 0 1-8-8V328.031c0-4.422 3.574-8 8-8h143.984c4.422 0 8 3.578 8 8V504c0 4.426-3.578 8-8 8zM16 496h127.984V336.031H16zM439.938 512H295.952a7.99 7.99 0 0 1-8-8V328.031c0-4.422 3.574-8 8-8h143.985c4.421 0 8 3.578 8 8V504c0 4.426-3.579 8-8 8zm-135.985-16h127.985V336.031H303.952zm0 0" fill="#ae2024" data-original="#000000"></path><path d="M295.953 128H151.984c-4.425 0-8-3.574-8-8s3.575-8 8-8h143.97c4.421 0 8 3.574 8 8s-3.579 8-8 8zM295.953 336H151.984c-4.425 0-8-3.574-8-8s3.575-8 8-8h143.97c4.421 0 8 3.574 8 8s-3.579 8-8 8zM295.953 512H151.984c-4.425 0-8-3.574-8-8s3.575-8 8-8h143.97c4.421 0 8 3.574 8 8s-3.579 8-8 8zM295.953 16H151.984c-4.425 0-8-3.574-8-8s3.575-8 8-8h143.97c4.421 0 8 3.574 8 8s-3.579 8-8 8zm0 0" fill="#ae2024" data-original="#000000"></path><path d="M311.938 335.559a7.99 7.99 0 0 1-8-8v-23.543c0-4.422 3.574-8 8-8 4.421 0 8 3.578 8 8v23.543c0 4.425-3.579 8-8 8zm0 0" fill="#ae2024" data-original="#000000"></path><path d="M423.953 312.016H311.938a7.99 7.99 0 0 1-8-8c0-4.422 3.574-8 8-8h112.015c4.422 0 8 3.578 8 8 0 4.425-3.578 8-8 8zm0 0" fill="#ae2024" data-original="#000000"></path><path d="M423.953 336.031a7.99 7.99 0 0 1-8-8v-24.015c0-4.422 3.574-8 8-8 4.422 0 8 3.578 8 8v24.015c0 4.426-3.578 8-8 8zM367.945 312.016a7.99 7.99 0 0 1-8-8v-48c0-4.422 3.575-8 8-8 4.422 0 8 3.578 8 8v48c0 4.425-3.578 8-8 8zM335.945 312.016a7.99 7.99 0 0 1-8-8V296c0-4.426 3.575-8 8-8 4.422 0 8 3.574 8 8v8.016c0 4.425-3.578 8-8 8zM399.945 312.016a7.99 7.99 0 0 1-8-8V296c0-4.426 3.575-8 8-8 4.422 0 8 3.574 8 8v8.016c0 4.425-3.578 8-8 8zM319.938 432.063a7.99 7.99 0 0 1-8-8V408c0-4.426 3.574-8 8-8 4.421 0 8 3.574 8 8v16.063c0 4.425-3.579 8-8 8zM319.938 112.031a7.99 7.99 0 0 1-8-8V87.97c0-4.426 3.574-8 8-8 4.421 0 8 3.574 8 8v16.062c0 4.426-3.579 8-8 8zM31.945 112.031a7.99 7.99 0 0 1-8-8V87.97c0-4.426 3.575-8 8-8 4.422 0 8 3.574 8 8v16.062c0 4.426-3.578 8-8 8zM151.984 424.047H8a7.99 7.99 0 0 1-8-8c0-4.422 3.574-8 8-8h143.984c4.422 0 8 3.578 8 8 0 4.426-3.578 8-8 8zM223.945 512a7.99 7.99 0 0 1-8-8V328.031c0-4.422 3.575-8 8-8 4.422 0 8 3.578 8 8V504c0 4.426-3.578 8-8 8zM199.945 432.063a7.99 7.99 0 0 1-8-8v-16.047c0-4.422 3.575-8 8-8 4.422 0 8 3.578 8 8v16.046c0 4.426-3.578 8-8 8zM87.945 359.938h-16c-4.425 0-8-3.579-8-8 0-4.426 3.575-8 8-8h16c4.422 0 8 3.574 8 8 0 4.421-3.578 8-8 8zM231.945 103.953h-16c-4.425 0-8-3.578-8-8 0-4.426 3.575-8 8-8h16c4.422 0 8 3.574 8 8 0 4.422-3.578 8-8 8zM87.945 447.984h-16c-4.425 0-8-3.578-8-8 0-4.425 3.575-8 8-8h16c4.422 0 8 3.575 8 8 0 4.422-3.578 8-8 8zM247.938 432.063a7.99 7.99 0 0 1-8-8v-16.047c0-4.422 3.574-8 8-8 4.421 0 8 3.578 8 8v16.046c0 4.426-3.579 8-8 8zm0 0" fill="#ae2024" data-original="#000000"></path></g></svg>