<svg xmlns="http://www.w3.org/2000/svg" version="1.1" xmlns:xlink="http://www.w3.org/1999/xlink" xmlns:svgjs="http://svgjs.com/svgjs" width="512" height="512" x="0" y="0" viewBox="0 0 512 512" style="enable-background:new 0 0 512 512" xml:space="preserve" class=""><g><path d="m509.362 106.052-11.614-11.241a8.663 8.663 0 0 0-12.25.2 8.663 8.663 0 0 0 .2 12.25l8.975 8.688v319.675h-74.759V115.95l37.379-36.18 10.158 9.833a8.663 8.663 0 0 0 12.25-.2 8.663 8.663 0 0 0-.2-12.25l-16.185-15.665a8.666 8.666 0 0 0-12.052 0l-46.043 44.565a8.667 8.667 0 0 0-2.638 6.225v55.354h-24.782v-55.354a8.663 8.663 0 0 0-2.638-6.225L329.12 61.488a8.666 8.666 0 0 0-12.052 0l-46.043 44.565a8.667 8.667 0 0 0-2.638 6.225v55.354h-24.782v-55.354a8.663 8.663 0 0 0-2.638-6.225l-46.043-44.565a8.666 8.666 0 0 0-12.052 0l-46.043 44.565a8.667 8.667 0 0 0-2.638 6.225v55.354h-24.779v-55.354a8.663 8.663 0 0 0-2.638-6.225L60.733 61.487a8.666 8.666 0 0 0-12.052 0L2.638 106.052A8.667 8.667 0 0 0 0 112.277v77.879a8.664 8.664 0 1 0 17.328 0V115.95l37.379-36.18 37.379 36.18v319.674H17.327V219.035a8.664 8.664 0 1 0-17.328 0v225.252a8.664 8.664 0 0 0 8.664 8.664h92.086a8.664 8.664 0 0 0 8.664-8.664v-25.991h24.782v25.991a8.664 8.664 0 0 0 8.664 8.664h92.085a8.664 8.664 0 0 0 8.664-8.664v-25.991h24.782v25.991a8.664 8.664 0 0 0 8.664 8.664h92.086a8.664 8.664 0 0 0 8.664-8.664v-25.991h24.782v25.991a8.664 8.664 0 0 0 8.664 8.664h92.086a8.664 8.664 0 0 0 8.664-8.664v-332.01a8.667 8.667 0 0 0-2.638-6.225zM134.196 400.97h-24.782v-40.43h24.782v40.43zm0-57.757h-24.782V242.716h24.782v100.497zm0-117.824h-24.782v-40.43h24.782v40.43zM268.391 400.97h-24.782v-40.43h24.782v40.43zm0-57.757h-24.782v-66.42a8.664 8.664 0 1 0-17.328 0v158.832h-74.758V115.95l37.379-36.18 37.379 36.179v131.965a8.663 8.663 0 0 0 8.664 8.663 8.664 8.664 0 0 0 8.664-8.663v-5.198h24.782v100.497zm0-117.824h-24.782v-40.43h24.782v40.43zm92.085 210.235h-74.758V115.95l37.379-36.18 37.379 36.18v319.674zm42.11-34.654h-24.782v-40.43h24.782v40.43zm0-57.757h-24.782V242.716h24.782v100.497zm0-117.824h-24.782v-40.43h24.782v40.43z" fill="#ae2024" data-original="#000000"></path><circle cx="457.296" cy="205.176" r="8.664" fill="#ae2024" data-original="#000000"></circle><circle cx="457.296" cy="380.757" r="8.664" fill="#ae2024" data-original="#000000"></circle><circle cx="323.092" cy="205.176" r="8.664" fill="#ae2024" data-original="#000000"></circle><circle cx="323.092" cy="380.757" r="8.664" fill="#ae2024" data-original="#000000"></circle><circle cx="188.9" cy="205.176" r="8.664" fill="#ae2024" data-original="#000000"></circle><circle cx="188.9" cy="380.757" r="8.664" fill="#ae2024" data-original="#000000"></circle><circle cx="54.707" cy="205.176" r="8.664" fill="#ae2024" data-original="#000000"></circle><circle cx="54.707" cy="380.757" r="8.664" fill="#ae2024" data-original="#000000"></circle></g></svg>