<svg xmlns="http://www.w3.org/2000/svg" version="1.1" xmlns:xlink="http://www.w3.org/1999/xlink" xmlns:svgjs="http://svgjs.com/svgjs" width="512" height="512" x="0" y="0" viewBox="0 0 512 512" style="enable-background:new 0 0 512 512" xml:space="preserve" class=""><g><path d="M236 283.227a7.5 7.5 0 0 0-7.5 7.5v15.164a7.5 7.5 0 1 0 15 0v-15.164a7.5 7.5 0 0 0-7.5-7.5zM127.094 171.563H97.906c-6.89 0-12.5 5.605-12.5 12.5v75.289c0 6.894 5.61 12.5 12.5 12.5h29.188c6.89 0 12.5-5.606 12.5-12.5v-75.29c0-6.894-5.61-12.5-12.5-12.5zm-2.5 85.289h-24.188v-70.29h24.188zM414.094 171.563h-29.188c-6.89 0-12.5 5.605-12.5 12.5v75.289c0 6.894 5.61 12.5 12.5 12.5h29.188c6.89 0 12.5-5.606 12.5-12.5v-75.29c0-6.894-5.61-12.5-12.5-12.5zm-2.5 85.289h-24.188v-70.29h24.188zM259.27 111.2h-6.54c-16.226 0-29.425 13.202-29.425 29.429v28.508c0 5.949 4.84 10.789 10.789 10.789h43.812c5.95 0 10.79-4.84 10.79-10.79V140.63c0-16.227-13.2-29.43-29.426-29.43zm-20.97 53.726v-24.297c0-7.957 6.473-14.43 14.43-14.43h6.54c7.953 0 14.425 6.473 14.425 14.43v24.297zm0 0" fill="#ae2024" data-original="#000000" class=""></path><path d="M504.5 358.133h-35.254V136.766H499.5c4.066 0 7.547-1.914 9.316-5.121 1.766-3.208 1.524-7.176-.648-10.614L446.816 23.97c-2.824-4.473-8.718-7.719-14.007-7.719H274.87L264.965 4.3C262.699 1.567 259.43 0 256 0c-3.434 0-6.7 1.566-8.965 4.3l-9.906 11.95H79.19c-5.293 0-11.183 3.246-14.011 7.719L3.832 121.03c-2.172 3.442-2.414 7.406-.648 10.614 1.77 3.207 5.25 5.12 9.316 5.12h30.254v159.993c-7.543 7.215-12.254 17.36-12.254 28.597 0 2.06.168 4.079.473 6.055h-3.184c-6.89 0-12.5 5.61-12.5 12.5v14.223H7.5a7.5 7.5 0 1 0 0 15h497a7.5 7.5 0 1 0 0-15zM473.715 94.598h-133.89l-9.946-12h136.25zm-24.653-39 7.586 12H317.441l-9.949-12zM432.73 31.25c.41.07 1.172.492 1.45.8l5.402 8.548H295.055l-7.746-9.348zM62.937 55.598H113a7.5 7.5 0 1 0 0-15H72.414l5.406-8.551c.278-.305 1.04-.727 1.446-.797H224.69l-7.75 9.348H148a7.5 7.5 0 1 0 0 15h56.508l-9.95 12H55.353zm-17.066 27h136.25l-9.95 12H38.286zm-24.758 39.168 7.692-12.168h130.933l-10.09 12.168zm144.66 163.601c-5.68-3.238-12.207-5.086-19.086-5.086-13.511 0-26.039 7.196-33.03 18.461a29.839 29.839 0 0 0-5.743-.55c-2.8 0-5.512.394-8.086 1.12-7.402-8.402-18.215-13.546-29.742-13.546-4.305 0-8.45.703-12.332 1.98v-150.98h79.457c-2.723 3.289-3.39 7.28-1.793 10.683 1.602 3.406 5.11 5.442 9.383 5.442h20.972zM78.238 331.41H46.27a24.561 24.561 0 0 1-.77-6.055c0-13.558 11.031-24.59 24.586-24.59 6.191 0 12.05 2.395 16.5 6.415-5.281 5.394-8.543 12.77-8.543 20.894 0 1.13.07 2.242.195 3.336zm87.535 26.723H30.29V346.41h135.484zm.004-26.723H93.434c-.25-1.07-.391-2.187-.391-3.336 0-8.207 6.672-14.883 14.871-14.883 2.219 0 4.356.48 6.352 1.422a7.508 7.508 0 0 0 5.992.188 7.509 7.509 0 0 0 4.215-4.266c3.52-9.125 12.453-15.254 22.218-15.254 7.707 0 14.7 3.781 19.086 9.649zm-10.011-193.52L256 16.989l100.234 120.903h-13.226l-81.235-97.98A7.514 7.514 0 0 0 256 37.198a7.493 7.493 0 0 0-5.773 2.715l-81.235 97.977zm131.992 220.243h-63.516V241.73h63.516zm166.488 0h-108.02v-90.567c0-4.14-3.359-7.5-7.5-7.5-4.14 0-7.5 3.36-7.5 7.5v90.567h-28.468V239.23c0-6.89-5.606-12.5-12.5-12.5h-68.516c-6.894 0-12.5 5.61-12.5 12.5v118.903h-28.469v-210.95L256 56.45l75.227 90.735v84.882a7.5 7.5 0 0 0 7.5 7.5 7.5 7.5 0 0 0 7.5-7.5v-79.175h20.968c4.274 0 7.782-2.036 9.383-5.442 1.602-3.402.93-7.394-1.789-10.683H404a7.5 7.5 0 1 0 0-15h-41.648l-10.09-12.168h130.933l7.692 12.168H440a7.5 7.5 0 1 0 0 15h14.246zm0 0" fill="#ae2024" data-original="#000000" class=""></path></g></svg>