<svg xmlns="http://www.w3.org/2000/svg" viewBox="0 0 551.22 226.68"><defs><style>.cls-1{fill:#fff;}</style></defs><g id="Layer_2" data-name="Layer 2"><g id="Layer_1-2" data-name="Layer 1"><path class="cls-1" d="M42.27,29.88h214v18h-214A24.29,24.29,0,0,0,18,72.14v98a24.29,24.29,0,0,0,24.27,24.26H158.19v18H42.27A42.31,42.31,0,0,1,0,170.11v-98A42.31,42.31,0,0,1,42.27,29.88Z"/><path class="cls-1" d="M551.22,72.14v98A42.31,42.31,0,0,1,509,212.37H381.66v-2a15.89,15.89,0,0,0,15-15.87v-.09H509a24.28,24.28,0,0,0,24.26-24.26v-98A24.28,24.28,0,0,0,509,47.88H283.62v-18H509A42.31,42.31,0,0,1,551.22,72.14Z"/><line class="cls-1" x1="158.19" y1="212.55" x2="158.19" y2="212.37"/><path class="cls-1" d="M392.49,149.07v43.1a13.6,13.6,0,0,1-13.58,13.58H367.84a4.5,4.5,0,1,1,0-9h11.07a4.59,4.59,0,0,0,4.58-4.58v-43.1a4.57,4.57,0,0,0-3.52-4.46l-1.58-.38V135l3.67.87A13.53,13.53,0,0,1,392.49,149.07Z"/><polygon class="cls-1" points="360.49 130.72 360.49 139.97 322.94 131.02 322.94 121.77 360.49 130.72"/><path class="cls-1" d="M277.94,111a4.56,4.56,0,0,1-3.51-4.46V85.48a5.36,5.36,0,0,0,4.4-5.27V5.36A5.36,5.36,0,0,0,273.47,0h-7.09A5.36,5.36,0,0,0,261,5.36V80.21a5.36,5.36,0,0,0,4.41,5.27v21.1a13.53,13.53,0,0,0,10.43,13.21l29.26,7v-9.25Z"/><path class="cls-1" d="M48.28,68.36H70.54q11.59,0,16.93,5.39T92.8,90.34v5.88q0,14.88-9.84,18.84v.28A11.72,11.72,0,0,1,90.68,122q2.25,5.06,2.25,13.52v16.8a61.66,61.66,0,0,0,.28,6.62,16.36,16.36,0,0,0,1.36,5H79.28a21.29,21.29,0,0,1-1.09-4.37,63.2,63.2,0,0,1-.28-7.37V134.73c0-4.37-.7-7.42-2.12-9.15S72,123,68.49,123H63.3v41h-15Zm20.48,41c3,0,5.26-.78,6.76-2.32s2.26-4.15,2.26-7.79V91.85q0-5.19-1.85-7.52C74.7,82.79,72.77,82,70.13,82H63.3v27.32Z"/><path class="cls-1" d="M103.31,68.36h41V82H118.33v25.27H139v13.65H118.33V150.3h26V164h-41Z"/><path class="cls-1" d="M164.49,68.36h20.35L200.41,164h-15l-2.73-19v.27H165.59L162.85,164H148.92Zm16.39,63.91L174.19,85h-.27l-6.56,47.25Z"/><path class="cls-1" d="M207.65,68.36h15V150.3h24.72V164H207.65Z"/><path class="cls-1" d="M336.83,123.54V91.3q0-4.9-2-7.1A7.26,7.26,0,0,0,329.19,82h-7.65V150.3h7.65a7.26,7.26,0,0,0,5.66-2.18q2-2.19,2-7.11v-5.14l15,3.58v.88q0,11.61-5.6,17.62t-16.8,6H306.52V68.36h22.94q11.19,0,16.8,6T351.86,92v35.13Z"/><path class="cls-1" d="M423.14,68.36h20.35L459.06,164H444l-2.73-19v.27H424.24L421.5,164H407.57Zm16.39,63.91L432.84,85h-.28L426,132.27Z"/><path class="cls-1" d="M466.3,68.36h15V150.3H506V164H466.3Z"/><path class="cls-1" d="M182.79,193.49h-1.61v6.67h1.61a1.65,1.65,0,0,0,1.26-.46,2.45,2.45,0,0,0,.41-1.59v-2.57a2.42,2.42,0,0,0-.41-1.58A1.61,1.61,0,0,0,182.79,193.49Z"/><polygon class="cls-1" points="207.69 194.18 206.2 204.9 209.27 204.9 207.75 194.18 207.69 194.18"/><path class="cls-1" d="M365.55,175.81H174.31a11.92,11.92,0,0,0-11.93,11.92v27a11.92,11.92,0,0,0,11.93,11.92H365.55a11.92,11.92,0,0,0,11.92-11.92v-27A11.92,11.92,0,0,0,365.55,175.81ZM187.87,197.9a5.67,5.67,0,0,1-1.27,4,5,5,0,0,1-3.81,1.36h-1.61v8.84h-3.41V190.39h5a5,5,0,0,1,3.81,1.37,5.65,5.65,0,0,1,1.27,4Zm22.42,14.2-.62-4.31v.06h-3.88l-.62,4.25H202l3.54-21.71h4.62l3.53,21.71Zm22.72,0H229.6V190.39H233Zm27.5,0H257l-4.09-15.85h-.07V212.1h-3V190.39h4.28l3.32,13h.06v-13h3ZM287,193.49h-3.56V212.1H280V193.49h-3.57v-3.1H287Zm19.32,18.61h-3.41V190.39h3.41Zm27.5,0h-3.51l-4.09-15.85h-.06V212.1h-3V190.39h4.28l3.32,13h.06v-13h3Zm26.72-14.7h-3.22v-2.08c0-1.42-.59-2.14-1.77-2.14s-1.77.72-1.77,2.14V207.2c0,1.4.59,2.11,1.77,2.11s1.77-.71,1.77-2.11V203h-1.71v-3.1h4.93V207a5.72,5.72,0,0,1-1.3,4,5.75,5.75,0,0,1-7.57,0,5.77,5.77,0,0,1-1.3-4V195.54a5.77,5.77,0,0,1,1.3-4,5.75,5.75,0,0,1,7.57,0,5.72,5.72,0,0,1,1.3,4Z"/><path class="cls-1" d="M394,164h8.94V150.3H394Zm-32-95.6V164h20V150.3h-5V120.94h20.62V107.28H377V82h25.94V68.36Z"/></g></g></svg>