<svg xmlns="http://www.w3.org/2000/svg" width="800" height="800" fill="#5A766A" viewBox="0 0 24 24"><g fill="none" fill-rule="evenodd"><path d="M0 0h24v24H0z"/><path stroke="#853A3A" stroke-linecap="round" stroke-width="2" d="M18.665 14.347a9.959 9.959 0 0 1-2.254-.56 1.64 1.64 0 0 0-1.707.36h0c-.598.605-1.537.745-2.225.244a12.91 12.91 0 0 1-2.833-2.833c-.501-.688-.362-1.627.244-2.225h0c.43-.451.569-1.106.36-1.693a10.157 10.157 0 0 1-.627-2.307A1.654 1.654 0 0 0 7.996 4H5.609c-.455 0-.89.188-1.2.52-.302.334-.447.78-.4 1.227a15.717 15.717 0 0 0 2.467 6.96 15.735 15.735 0 0 0 4.827 4.826A16.128 16.128 0 0 0 18.252 20h.133c.406.003.797-.15 1.094-.427a1.6 1.6 0 0 0 .52-1.186V16a1.614 1.614 0 0 0-1.334-1.653Z"/></g></svg>