<?xml version="1.0" encoding="utf-8"?><!-- Uploaded to: SVG Repo, www.svgrepo.com, Generator: SVG Repo Mixer Tools -->
<svg width="800px" height="800px" viewBox="0 0 24 24" fill="none" xmlns="http://www.w3.org/2000/svg">
<path d="M20.1819 10.1818C20.1819 16.5455 12.0001 22 12.0001 22C12.0001 22 3.81824 16.5455 3.81824 10.1818C3.81824 8.01187 4.68025 5.93079 6.21464 4.3964C7.74902 2.86201 9.8301 2 12.0001 2C14.17 2 16.2511 2.86201 17.7855 4.3964C19.3199 5.93079 20.1819 8.01187 20.1819 10.1818Z" stroke="#F7F7F7" stroke-width="2" stroke-linecap="round" stroke-linejoin="round"/>
<path d="M12.0001 12.9091C13.5063 12.9091 14.7274 11.688 14.7274 10.1818C14.7274 8.67559 13.5063 7.45454 12.0001 7.45454C10.4939 7.45454 9.27283 8.67559 9.27283 10.1818C9.27283 11.688 10.4939 12.9091 12.0001 12.9091Z" stroke="#F7F7F7" stroke-width="2" stroke-linecap="round" stroke-linejoin="round"/>
</svg>