<svg xmlns="http://www.w3.org/2000/svg" version="1.1" xmlns:xlink="http://www.w3.org/1999/xlink" xmlns:svgjs="http://svgjs.com/svgjs" width="512" height="512" x="0" y="0" viewBox="0 0 512 512" style="enable-background:new 0 0 512 512" xml:space="preserve" class=""><g><path d="M212.883 111.867h-75.871c-6.895 0-12.5 5.606-12.5 12.5v123.934c0 6.89 5.605 12.5 12.5 12.5h75.87c6.895 0 12.5-5.61 12.5-12.5V124.367c0-6.894-5.605-12.5-12.5-12.5zm-45.438 133.934h-27.933v-30.672h27.933zm0-45.672h-27.933v-27.594h27.933zm0-42.594h-27.933v-30.668h27.933zm42.938 88.266h-27.938v-30.672h27.938zm0-45.672h-27.938v-27.594h27.938zm0-42.594h-27.938v-30.668h27.938zM313.473 411.297a7.5 7.5 0 0 0-7.5 7.5v18.008a7.5 7.5 0 0 0 7.5 7.5 7.5 7.5 0 0 0 7.5-7.5v-18.008a7.5 7.5 0 0 0-7.5-7.5zm0 0" fill="#ae2024" data-original="#000000" class=""></path><path d="M511.93 335.555a9.955 9.955 0 0 0-3.793-6.606L349.242 206.008a19.752 19.752 0 0 0-12.18-4.164c-4.449 0-8.66 1.441-12.187 4.168l-24.031 18.593v-21.539c0-4.144-3.356-7.5-7.5-7.5s-7.5 3.356-7.5 7.5v33.145l-119.852 92.734a10.038 10.038 0 0 0-3.8 6.64 9.944 9.944 0 0 0 1.988 7.368l12.16 15.817a9.932 9.932 0 0 0 7.914 3.89c2.195 0 4.363-.738 6.105-2.086l146.703-113.508 110.887 85.797V489.13h-60.406v-14.063c0-4.144-3.356-7.5-7.5-7.5s-7.5 3.356-7.5 7.5v14.063H301.57V374.23h70.973v65.586c0 4.145 3.355 7.5 7.5 7.5s7.5-3.355 7.5-7.5V371.73c0-6.89-5.61-12.5-12.5-12.5h-75.969c-6.894 0-12.504 5.61-12.504 12.5V489.13h-56.992v-20.457c0-6.895-5.605-12.5-12.5-12.5h-7.18c.598-2.985.922-6.067.922-9.223 0-25.957-21.12-47.074-47.078-47.074-14.09 0-27.273 6.465-36.09 16.95a34.978 34.978 0 0 0-10.562-1.63c-2.703 0-5.36.301-7.942.903-8.168-13.993-23.41-22.993-39.886-22.993-1.754 0-3.489.11-5.2.31V142.358l110.891-85.804 110.895 85.804v25.703c0 4.145 3.355 7.5 7.5 7.5a7.5 7.5 0 0 0 7.5-7.5v-14.097l20.812 16.101a10.007 10.007 0 0 0 6.102 2.086 9.913 9.913 0 0 0 7.918-3.898l.082-.11 11.648-15.734.074-.094c.77-.964 2.813-3.523 2.336-7.27a9.918 9.918 0 0 0-3.793-6.605L187.137 15.5c-3.524-2.723-7.735-4.164-12.184-4.164s-8.66 1.441-12.187 4.168L119.14 49.258v-9.453c5.898-1 10.406-6.133 10.406-12.309V12.5c0-6.895-5.61-12.5-12.5-12.5H56.27c-6.891 0-12.5 5.605-12.5 12.5v14.992c0 6.18 4.507 11.309 10.406 12.313v59.718L3.895 138.43a10.026 10.026 0 0 0-3.81 6.636 9.926 9.926 0 0 0 1.985 7.375l12.16 15.817a9.913 9.913 0 0 0 7.915 3.894c2.195 0 4.359-.738 6.109-2.086l20.808-16.101v243.86c-11.906 5.859-21.074 16.718-24.48 29.964-11.309 4.36-19.078 15.344-19.078 27.813 0 1.375.098 2.726.277 4.054-2.379 2.278-3.863 5.473-3.863 9.016v22.96c0 6.891 5.605 12.5 12.5 12.5h470.27a7.5 7.5 0 0 0 7.5-7.5c0-4.144-3.356-7.5-7.5-7.5h-21.739V344.47l20.817 16.105a10.031 10.031 0 0 0 6.101 2.086 9.905 9.905 0 0 0 7.918-3.902l.082-.106 11.653-15.738.078-.098c.765-.96 2.804-3.52 2.332-7.261zm-348.188 79.32c17.688 0 32.078 14.39 32.078 32.074 0 3.207-.484 6.301-1.363 9.223h-42.781c.324-1.906.504-3.867.504-5.867 0-10.176-4.356-19.348-11.29-25.77 5.93-6.02 14.133-9.66 22.852-9.66zM58.77 15h55.777v9.992H58.77zm45.37 24.992v20.871L69.177 87.918V39.992zM23.056 155.125l-6.051-7.871L171.94 27.367c.887-.683 1.899-1.031 3.012-1.031s2.125.348 3.008 1.027l154.726 119.723-5.906 7.98L179.543 41.141a7.504 7.504 0 0 0-9.18 0zm191.523 334.008H16.918v-17.961h69.086a7.5 7.5 0 1 0 0-15h-65.48c-.008-.192-.02-.379-.02-.57 0-7.075 5.027-13.188 11.96-14.532a7.5 7.5 0 0 0 5.997-6.297c2.187-15.199 15.43-26.664 30.8-26.664 12.766 0 24.438 8.012 29.044 19.934a7.502 7.502 0 0 0 4.21 4.266 7.508 7.508 0 0 0 5.993-.188 19.95 19.95 0 0 1 8.582-1.922c11.078 0 20.09 9.02 20.09 20.11 0 2.043-.32 4.007-.89 5.863h-14.286a7.5 7.5 0 0 0-7.5 7.5c0 4.144 3.355 7.5 7.5 7.5h92.574zm274.313-143.559L341.652 231.652a7.493 7.493 0 0 0-9.18 0L185.16 345.632l-6.05-7.87 154.94-119.883a4.806 4.806 0 0 1 3.012-1.035c1.11 0 2.125.347 3.008 1.031l154.727 119.719zm0 0" fill="#ae2024" data-original="#000000" class=""></path></g></svg>