<svg xmlns="http://www.w3.org/2000/svg" version="1.1" xmlns:xlink="http://www.w3.org/1999/xlink" xmlns:svgjs="http://svgjs.com/svgjs" width="512" height="512" x="0" y="0" viewBox="0 0 64 64" style="enable-background:new 0 0 512 512" xml:space="preserve" class=""><g><path d="M60.707 51.308a1 1 0 0 0-.707-.293 1 1 0 0 1-1-1 1 1 0 0 0-.292-.707l-8.986-9a1 1 0 0 0-.707-.294 1 1 0 0 1-1-1 1 1 0 0 0-.293-.707l-2-2a1 1 0 0 0-.7-.293L40.414 36l-3-2.989a1.45 1.45 0 0 1 .029-2.064L48.6 18.819a8.228 8.228 0 0 0 0-11.637l-3.755-3.751a8.275 8.275 0 0 0-11.69 0L33 3.586 32.414 3a3.5 3.5 0 0 0-4.828 0L2 28.586a3.414 3.414 0 0 0 0 4.828l.713.713-1.545 2.319a1 1 0 0 0 .125 1.261L4 40.414V58.5a4.5 4.5 0 0 0 9 0V51a2 2 0 0 1 4 0 4 4 0 0 0 8 0V28.414l14-14a3.414 3.414 0 0 0 0-4.828L37.414 8l.58-.58a1.458 1.458 0 0 1 2.012 0l4.6 4.6a1.405 1.405 0 0 1-.03 2l-11.15 12.123a8.291 8.291 0 0 0 0 11.713L36 40.418 36.015 45a1 1 0 0 0 .293.7l2 2a1 1 0 0 0 .707.293 1 1 0 0 1 1 1 1 1 0 0 0 .292.707l8.985 9A1 1 0 0 0 50 59a1 1 0 0 1 1 1 1 1 0 0 0 .293.707l2 2A1 1 0 0 0 54 63h2a1 1 0 0 0 .707-.293l2.893-2.891a.966.966 0 0 0 .109-.094l3-3a1 1 0 0 0 .291-.707v-2a1 1 0 0 0-.293-.707ZM5.127 38.713l-1.84-1.84.868-1.3 2.275 2.271ZM23 51a2 2 0 0 1-4 0 4 4 0 0 0-8 0v7.5a2.5 2.5 0 0 1-5 0V40.535l1.872-1.249.714.714a3.414 3.414 0 0 0 4.828 0L23 30.414Zm14.586-40a1.415 1.415 0 0 1 0 2L12 38.586a1.465 1.465 0 0 1-2 0L3.414 32a1.415 1.415 0 0 1 0-2L29 4.414a1.415 1.415 0 0 1 2 0ZM34.84 36.44a6.3 6.3 0 0 1 .029-8.914L46.016 15.4a3.4 3.4 0 0 0 0-4.8l-4.6-4.6a3.5 3.5 0 0 0-4.84 0l-.58.58L34.414 5l.155-.155a6.274 6.274 0 0 1 8.862 0L47.182 8.6a6.23 6.23 0 0 1-.03 8.839L36 29.566a3.442 3.442 0 0 0 0 4.864L38.583 37 37 38.588Zm3.168 6.154L38 40.414 40.41 38l2.183.006Zm2.3 3.7a2.972 2.972 0 0 0-.842-.263L38.429 45l6.578-6.578 1.041 1.041a2.968 2.968 0 0 0 .259.831Zm10.985 11a2.967 2.967 0 0 0-.841-.264l-8.467-8.479a2.972 2.972 0 0 0-.263-.842l6-6a2.972 2.972 0 0 0 .852.268l8.466 8.479a2.938 2.938 0 0 0 .26.831ZM61 55.6l-2.6 2.6a.874.874 0 0 0-.109.094L55.586 61h-1.172l-1.447-1.448a2.967 2.967 0 0 0-.264-.841l6-6a2.935 2.935 0 0 0 .851.268L61 54.429Z" data-name="Artboard 01" fill="#ae2024" data-original="#000000"></path></g></svg>