<svg xmlns="http://www.w3.org/2000/svg" version="1.1" xmlns:xlink="http://www.w3.org/1999/xlink" xmlns:svgjs="http://svgjs.com/svgjs" width="512" height="512" x="0" y="0" viewBox="0 0 512 512" style="enable-background:new 0 0 512 512" xml:space="preserve" class=""><g><path d="M502 92.909h-36.572V56.44c0-5.522-4.478-10-10-10h-36.544V10c0-5.44-4.561-10-10-10H10C4.478 0 0 4.478 0 10v397.985c0 5.438 4.551 10.011 10 10.011h36.544v36.44c0 5.522 4.478 10 10 10h36.572v36.469c0 5.522 4.478 10 10 10H502c5.522 0 10-4.478 10-10V102.909c0-5.522-4.478-10-10-10zM167.124 397.997l70.411-70.25c12.794-12.764 25.586-25.532 38.38-38.296l52.325 52.209-56.463 56.337zm-132.943 0 108.778-108.536 52.326 52.188-56.478 56.348zm364.703-126.824-56.498 56.348-52.313-52.197c36.271-36.188 72.543-72.377 108.811-108.572zm-189.442 56.35-52.327-52.188 118.811-118.547 52.303 52.209c-19.782 19.739-39.563 39.479-59.346 59.217-.016.016-.033.029-.049.044-.014.014-.026.03-.04.045-15.129 15.094-30.256 30.192-45.385 45.285zM20 166.758l42.309 42.233L20 251.215zm122.943-9.984 52.34 52.224-59.122 58.99c-.094.086-.192.165-.283.255l-59.401 59.281-52.32-52.203 59.376-59.245c.046-.046.085-.096.13-.143zm73.562-73.372 59.408-59.275 52.327 52.211-59.104 58.973c-.099.092-.203.175-.3.271-.089.089-.166.186-.25.278l-59.144 59.012-52.341-52.224 59.256-59.112c.048-.047.1-.086.148-.134zM62.314 341.647 20 383.886v-84.459zm336.57-203.149c-18.83 18.794-37.665 37.582-56.498 56.374l-52.302-52.209 108.8-108.558zm-56.486-76.287L300.094 20h84.609zM135.88 135.566l-.002.002-59.413 59.295-52.308-52.215L142.944 24.125l52.33 52.192zm263.004 163.861v98.57h-98.79zM251.729 20l-42.295 42.192L167.13 20zm-132.967 0L20 118.542V20zM492 490.906H113.116v-26.469h121.241c5.522 0 10-4.478 10-10s-4.478-10-10-10H66.544v-26.44h342.34c5.522 0 10-4.478 10-10V66.44h26.544v377.997H324.187c-5.522 0-10 4.478-10 10s4.478 10 10 10h131.241c5.522 0 10-4.478 10-10V112.909H492z" fill="#ae2024" data-original="#000000" class=""></path><path d="M279.286 444.438c-5.522 0-10 4.478-10 10s4.478 10 10 10h.028c5.522 0 9.985-4.478 9.985-10s-4.49-10-10.013-10z" fill="#ae2024" data-original="#000000" class=""></path></g></svg>