<svg xmlns="http://www.w3.org/2000/svg" version="1.1" xmlns:xlink="http://www.w3.org/1999/xlink" xmlns:svgjs="http://svgjs.com/svgjs" width="512" height="512" x="0" y="0" viewBox="0 0 512 512" style="enable-background:new 0 0 512 512" xml:space="preserve" class=""><g><path d="M177.756 120.221c-1.471 4.527-.023 9.379 3.687 12.362l33.035 26.552-11.119 40.899c-1.248 4.592.433 9.368 4.286 12.17 3.854 2.796 8.913 2.919 12.896.313l35.461-23.213 35.462 23.214a11.348 11.348 0 0 0 6.226 1.873 11.31 11.31 0 0 0 6.668-2.187c3.855-2.799 5.537-7.578 4.286-12.17l-11.119-40.898 33.033-26.551c3.713-2.982 5.161-7.835 3.689-12.364-1.471-4.53-5.495-7.605-10.25-7.835l-42.333-2.064L266.62 70.7c-1.689-4.451-5.858-7.328-10.619-7.328s-8.93 2.876-10.618 7.327l-15.045 39.624-42.33 2.063c-4.757.23-8.781 3.305-10.252 7.835zm56.396 5.934a11.352 11.352 0 0 0 10.064-7.313L256 87.807l11.784 31.038a11.359 11.359 0 0 0 10.064 7.31l33.157 1.617-25.876 20.797a11.356 11.356 0 0 0-3.844 11.832l8.709 32.034-27.776-18.183a11.36 11.36 0 0 0-12.441.001l-27.774 18.182 8.709-32.032a11.354 11.354 0 0 0-3.845-11.834l-25.875-20.796zM248 37.358V8a8 8 0 0 1 16 0v29.358a8 8 0 0 1-16 0zm48.719 47.398a8 8 0 0 1 .592-11.298L330.026 44a8 8 0 1 1 10.707 11.89l-32.716 29.458a7.97 7.97 0 0 1-5.351 2.055 7.979 7.979 0 0 1-5.947-2.647zM170.675 44.592A8 8 0 0 1 181.974 44l32.716 29.458a8 8 0 0 1-10.707 11.89L171.267 55.89a8 8 0 0 1-.592-11.298zm187.959 87.991 33.035 26.552-11.119 40.899c-1.248 4.592.433 9.368 4.286 12.17 3.851 2.796 8.911 2.918 12.896.313l35.461-23.213 35.462 23.214a11.348 11.348 0 0 0 6.226 1.873 11.31 11.31 0 0 0 6.668-2.187c3.853-2.797 5.535-7.574 4.286-12.17l-11.119-40.898 33.033-26.551c3.712-2.981 5.16-7.834 3.688-12.364-1.471-4.53-5.495-7.605-10.249-7.835l-42.333-2.064L443.812 70.7c-1.689-4.451-5.858-7.328-10.619-7.328-4.762 0-8.931 2.876-10.62 7.327l-15.043 39.623-42.33 2.063c-4.758.23-8.782 3.306-10.253 7.836-1.472 4.529-.024 9.382 3.687 12.362zm52.708-6.428a11.356 11.356 0 0 0 10.067-7.314l11.783-31.035 11.782 31.034a11.355 11.355 0 0 0 10.066 7.314l33.157 1.617-25.873 20.795a11.354 11.354 0 0 0-3.847 11.834l8.709 32.034-27.776-18.183a11.353 11.353 0 0 0-12.441.001l-27.774 18.182 8.709-32.032a11.358 11.358 0 0 0-3.845-11.834l-25.875-20.797zM4.25 132.583l33.035 26.552-11.119 40.899c-1.248 4.592.433 9.368 4.286 12.17 3.854 2.796 8.913 2.919 12.896.313l35.461-23.213 35.462 23.214a11.348 11.348 0 0 0 6.226 1.873 11.31 11.31 0 0 0 6.668-2.187c3.853-2.797 5.535-7.574 4.286-12.17l-11.119-40.898 33.033-26.551c3.71-2.979 5.159-7.831 3.688-12.369-1.474-4.527-5.498-7.601-10.249-7.831l-42.333-2.064L89.428 70.7c-1.689-4.451-5.858-7.328-10.619-7.328-4.762 0-8.931 2.876-10.62 7.327l-15.043 39.623-42.33 2.063c-4.757.23-8.781 3.306-10.251 7.831-1.475 4.531-.028 9.386 3.685 12.367zm52.708-6.428a11.356 11.356 0 0 0 10.067-7.314l11.783-31.035L90.59 118.84a11.355 11.355 0 0 0 10.066 7.314l33.157 1.617-25.873 20.795a11.354 11.354 0 0 0-3.847 11.834l8.709 32.034-27.776-18.183a11.353 11.353 0 0 0-12.441.001l-27.774 18.182 8.709-32.032a11.358 11.358 0 0 0-3.845-11.834L23.8 127.771zm453.783 298.778c-5.629-18.178-17.158-34.5-32.465-45.962a90.733 90.733 0 0 0-23.726-12.787c11.671-9.16 19.191-23.38 19.191-39.333 0-27.566-22.427-49.992-49.992-49.992-27.566 0-49.993 22.426-49.993 49.992 0 15.934 7.502 30.14 19.15 39.301-15.611 5.572-29.441 15.362-40.032 28.554a119.585 119.585 0 0 0-17.079-19.162 118.757 118.757 0 0 0-44.46-25.364c17.335-11.492 28.795-31.169 28.795-53.48 0-35.36-28.769-64.128-64.129-64.128s-64.129 28.768-64.129 64.128c0 22.311 11.459 41.988 28.794 53.48a118.74 118.74 0 0 0-44.461 25.364 119.567 119.567 0 0 0-17.078 19.161c-10.59-13.193-24.42-22.983-40.032-28.556 11.647-9.161 19.15-23.367 19.15-39.301 0-27.566-22.427-49.992-49.992-49.992-27.566 0-49.993 22.426-49.993 49.992 0 15.952 7.52 30.173 19.19 39.333a90.755 90.755 0 0 0-23.727 12.787c-15.307 11.461-26.836 27.784-32.465 45.961-2.601 8.396-1.16 16.917 4.057 23.995 5.216 7.076 12.93 10.972 21.72 10.972h110.593v14.438c0 20.77 16.897 37.667 37.667 37.667h161.41c20.769 0 37.667-16.897 37.668-37.667V459.9h110.592c8.791 0 16.505-3.897 21.72-10.972 5.216-7.078 6.657-15.6 4.056-23.995zm-86.992-132.074c18.743 0 33.992 15.249 33.992 33.992 0 18.744-15.249 33.993-33.992 33.993-18.744 0-33.993-15.249-33.993-33.993 0-18.743 15.249-33.992 33.993-33.992zM207.872 296.7c0-26.538 21.591-48.128 48.129-48.128s48.129 21.59 48.129 48.128c0 26.53-21.577 48.114-48.103 48.128h-.053c-26.526-.015-48.102-21.599-48.102-48.128zm-119.619-3.845c18.743 0 33.992 15.249 33.992 33.992 0 18.744-15.249 33.993-33.992 33.993-18.744 0-33.993-15.249-33.993-33.993 0-18.743 15.249-33.992 33.993-33.992zm50.414 151.04H27.036c-3.682 0-6.656-1.502-8.841-4.466-2.186-2.964-2.741-6.25-1.652-9.767 9.784-31.595 38.603-52.822 71.71-52.822 25.043 0 47.856 12.1 61.887 32.583a118.384 118.384 0 0 0-11.473 34.472zm219.706 30.438C358.372 486.28 348.652 496 336.705 496h-161.41c-11.947 0-21.667-9.72-21.667-21.667V452.33c5.792-52.188 49.716-91.489 102.346-91.502l.027.001.026-.001c52.629.014 96.552 39.314 102.346 91.502zm135.433-34.899c-2.185 2.963-5.158 4.465-8.841 4.465h-111.63a118.455 118.455 0 0 0-11.473-34.474c14.032-20.482 36.844-32.581 61.886-32.581 33.107 0 61.926 21.228 71.71 52.823 1.089 3.515.533 6.801-1.652 9.767z" fill="#ae2024" data-original="#000000" class=""></path></g></svg>