<svg xmlns="http://www.w3.org/2000/svg" version="1.1" xmlns:xlink="http://www.w3.org/1999/xlink" xmlns:svgjs="http://svgjs.com/svgjs" width="512" height="512" x="0" y="0" viewBox="0 0 64 64" style="enable-background:new 0 0 512 512" xml:space="preserve" class=""><g><path d="M52.635 20.52a7.24 7.24 0 0 1-.94-1.797 7.519 7.519 0 0 1-.097-2.115 6.552 6.552 0 0 0-.543-3.61 6.59 6.59 0 0 0-2.885-2.294 7.36 7.36 0 0 1-1.756-1.118 7.391 7.391 0 0 1-1.118-1.756 6.592 6.592 0 0 0-2.293-2.886 6.56 6.56 0 0 0-3.61-.542 7.523 7.523 0 0 1-2.115-.096 7.228 7.228 0 0 1-1.798-.94A6.637 6.637 0 0 0 32 2a6.637 6.637 0 0 0-3.48 1.365 7.24 7.24 0 0 1-1.798.94 7.596 7.596 0 0 1-2.114.097 6.558 6.558 0 0 0-3.611.543 6.59 6.59 0 0 0-2.293 2.885 7.36 7.36 0 0 1-1.118 1.756 7.391 7.391 0 0 1-1.756 1.118 6.592 6.592 0 0 0-2.886 2.293 6.562 6.562 0 0 0-.542 3.61 7.521 7.521 0 0 1-.096 2.115 7.228 7.228 0 0 1-.94 1.799A6.637 6.637 0 0 0 10 24a6.637 6.637 0 0 0 1.365 3.48 7.24 7.24 0 0 1 .94 1.798 7.519 7.519 0 0 1 .097 2.114 6.552 6.552 0 0 0 .543 3.611 6.59 6.59 0 0 0 2.885 2.293 7.36 7.36 0 0 1 1.756 1.119 7.391 7.391 0 0 1 1.118 1.755 12.679 12.679 0 0 0 .971 1.642L14.06 57.238a1 1 0 0 0 1.26 1.29l5.308-1.793 2.914 4.786a1 1 0 0 0 .855.48c.032 0 .065-.002.098-.005a.999.999 0 0 0 .841-.654l5.637-15.484a3.78 3.78 0 0 0 2.055 0l5.636 15.484a.999.999 0 0 0 .841.654c.033.003.067.005.099.005a1 1 0 0 0 .854-.48l2.914-4.787 5.308 1.793a1 1 0 0 0 1.26-1.289l-5.615-15.427a12.75 12.75 0 0 0 .97-1.641 7.36 7.36 0 0 1 1.12-1.756 7.391 7.391 0 0 1 1.755-1.118 6.592 6.592 0 0 0 2.886-2.293 6.562 6.562 0 0 0 .542-3.61 7.521 7.521 0 0 1 .096-2.115 7.228 7.228 0 0 1 .94-1.798A6.637 6.637 0 0 0 54 24a6.637 6.637 0 0 0-1.365-3.48ZM24.169 58.703l-2.248-3.692a1 1 0 0 0-1.175-.427l-4.095 1.383 4.646-12.764a7.203 7.203 0 0 0 3.31.395 7.563 7.563 0 0 1 2.115.096 7.228 7.228 0 0 1 1.799.94c.203.13.413.262.627.39Zm19.085-4.119a1 1 0 0 0-1.175.427l-2.248 3.692-4.979-13.678c.215-.13.425-.261.628-.39a7.24 7.24 0 0 1 1.797-.94 7.554 7.554 0 0 1 2.115-.097 7.186 7.186 0 0 0 3.311-.396l4.646 12.765Zm7.693-28.179a8.722 8.722 0 0 0-1.184 2.357 9.05 9.05 0 0 0-.164 2.712 5.036 5.036 0 0 1-.275 2.528 5.062 5.062 0 0 1-2.079 1.521A8.87 8.87 0 0 0 45 37a8.844 8.844 0 0 0-1.478 2.245 5.062 5.062 0 0 1-1.521 2.08 5.053 5.053 0 0 1-2.528.274 9.085 9.085 0 0 0-2.712.164 8.73 8.73 0 0 0-2.356 1.184A5.079 5.079 0 0 1 32 44a5.079 5.079 0 0 1-2.405-1.053 8.722 8.722 0 0 0-2.357-1.184 6.612 6.612 0 0 0-1.716-.19c-.334 0-.667.013-.996.026a5.047 5.047 0 0 1-2.528-.274 5.062 5.062 0 0 1-1.521-2.08A8.87 8.87 0 0 0 19 37a8.844 8.844 0 0 0-2.245-1.478 5.062 5.062 0 0 1-2.08-1.521 5.037 5.037 0 0 1-.274-2.528 9.052 9.052 0 0 0-.164-2.712 8.73 8.73 0 0 0-1.184-2.356A5.079 5.079 0 0 1 12 24a5.079 5.079 0 0 1 1.053-2.405 8.722 8.722 0 0 0 1.184-2.357 9.05 9.05 0 0 0 .164-2.712 5.036 5.036 0 0 1 .275-2.528 5.062 5.062 0 0 1 2.079-1.521A8.87 8.87 0 0 0 19 11a8.844 8.844 0 0 0 1.478-2.245 5.062 5.062 0 0 1 1.521-2.08 5.041 5.041 0 0 1 2.528-.274 9.087 9.087 0 0 0 2.712-.164 8.73 8.73 0 0 0 2.356-1.184A5.079 5.079 0 0 1 32 4a5.079 5.079 0 0 1 2.405 1.053 8.722 8.722 0 0 0 2.357 1.184 9.086 9.086 0 0 0 2.712.164 5.037 5.037 0 0 1 2.528.275 5.062 5.062 0 0 1 1.521 2.079A8.87 8.87 0 0 0 45 11a8.844 8.844 0 0 0 2.245 1.478 5.062 5.062 0 0 1 2.08 1.521 5.037 5.037 0 0 1 .274 2.528 9.052 9.052 0 0 0 .164 2.712 8.73 8.73 0 0 0 1.184 2.356A5.079 5.079 0 0 1 52 24a5.079 5.079 0 0 1-1.053 2.405Z" fill="#ae2024" data-original="#000000" class=""></path><path d="M32 8a16 16 0 1 0 16 16A16.018 16.018 0 0 0 32 8Zm0 30a14 14 0 1 1 14-14 14.016 14.016 0 0 1-14 14Z" fill="#ae2024" data-original="#000000" class=""></path><path d="m35.588 19.01-2.692-5.452a1.04 1.04 0 0 0-1.793 0l-2.69 5.453-6.02.875a1 1 0 0 0-.554 1.705l4.355 4.245-1.028 5.995a1 1 0 0 0 1.451 1.054L32 30.055l5.383 2.83a1 1 0 0 0 1.451-1.054l-1.028-5.995 4.355-4.245a1 1 0 0 0-.555-1.705Zm.445 5.761a1 1 0 0 0-.287.885l.774 4.516-4.054-2.132a1 1 0 0 0-.932 0l-4.054 2.132.774-4.516a1 1 0 0 0-.287-.884l-3.281-3.199 4.534-.659a.999.999 0 0 0 .753-.547L32 16.26l2.027 4.107a.999.999 0 0 0 .753.547l4.534.66Z" fill="#ae2024" data-original="#000000" class=""></path></g></svg>