<svg width="645" height="1080" viewBox="0 0 645 1080" fill="none" xmlns="http://www.w3.org/2000/svg">
<g opacity="0.1">
<mask id="mask0_5_41" style="mask-type:alpha" maskUnits="userSpaceOnUse" x="0" y="0" width="645" height="1080">
<rect width="645" height="1080" fill="#042925"/>
</mask>
<g mask="url(#mask0_5_41)">
<path d="M752.629 -339.986C740.174 -303.342 722.258 -268.831 704.96 -235.458C672.85 -173.557 639.626 -109.571 640.445 -30.0463C641.263 49.4782 675.765 112.046 709.135 172.55C727.137 205.184 745.755 238.956 758.959 275.037L755.591 276.58C742.511 240.791 723.967 207.178 706.039 174.649C672.399 113.67 637.65 50.6247 636.82 -29.9972C635.99 -110.619 669.451 -175.092 701.822 -237.454C719.073 -270.692 736.893 -305.067 749.256 -341.388L752.629 -339.986Z" fill="#F7F7F7"/>
<path d="M763.639 481.986C751.183 518.615 733.268 553.11 715.945 586.468C683.835 648.315 650.611 712.3 651.429 791.789C652.247 871.277 686.749 933.817 720.118 994.293C737.997 1026.7 756.492 1060.22 769.669 1096.04L766.35 1097.58C753.272 1062.08 734.876 1028.69 717.046 996.418C683.431 935.466 648.658 872.45 647.829 791.864C646.999 711.278 680.46 646.834 712.807 584.5C730.059 551.277 747.903 516.917 760.242 480.612L763.639 481.986Z" fill="#F7F7F7"/>
<path d="M758.48 380.011C759.321 460.603 724.967 525.062 691.756 587.409C658.788 649.27 624.677 713.269 625.506 792.737C626.335 872.232 661.741 934.767 695.985 995.239C714.332 1027.64 733.312 1061.16 746.833 1096.98L743.401 1098.55C729.982 1063.05 711.104 1029.66 692.807 997.392C658.31 936.444 622.626 873.432 621.786 792.84C620.945 712.248 655.3 647.79 688.51 585.442C721.478 523.582 755.589 459.583 754.761 380.115C753.932 300.647 718.525 238.085 684.257 177.613C649.76 116.665 614.076 53.6532 613.236 -26.9387L616.956 -27.0155C617.785 52.4793 653.191 115.015 687.46 175.486C721.956 236.408 757.64 299.446 758.48 380.011Z" fill="#F7F7F7"/>
<path d="M734.48 380.011C735.321 460.603 700.973 525.062 667.743 587.41C634.781 649.27 600.676 713.269 601.505 792.737C602.334 872.232 637.734 934.767 671.997 995.239C690.341 1027.64 709.317 1061.16 722.836 1096.98L719.405 1098.55C705.989 1063.05 687.088 1029.66 668.82 997.392C634.304 936.444 598.627 873.432 597.786 792.84C596.945 712.248 631.294 647.79 664.523 585.442C697.485 523.581 731.59 459.583 730.761 380.115C729.932 300.647 694.532 238.084 660.27 177.613C625.754 116.665 590.076 53.6532 589.236 -26.9387L592.955 -27.0155C593.784 52.4793 629.184 115.015 663.447 175.486C697.962 236.408 733.64 299.446 734.48 380.011Z" fill="#F7F7F7"/>
<path d="M709.48 380.011C710.321 460.603 675.966 525.062 642.755 587.409C609.788 649.27 575.677 713.269 576.506 792.737C577.335 872.232 612.741 934.767 646.985 995.239C665.332 1027.64 684.311 1061.16 697.833 1096.98L694.401 1098.55C680.982 1063.05 662.104 1029.66 643.807 997.392C609.31 936.444 573.626 873.432 572.786 792.84C571.945 712.248 606.3 647.79 639.51 585.442C672.478 523.581 706.589 459.583 705.76 380.115C704.931 300.647 669.525 238.084 635.256 177.613C600.76 116.665 565.075 53.6532 564.235 -26.9387L567.955 -27.0155C568.784 52.4793 604.19 115.015 638.459 175.486C672.955 236.408 708.64 299.446 709.48 380.011Z" fill="#F7F7F7"/>
<path d="M685.481 381.011C686.321 461.603 651.96 526.062 618.744 588.41C585.77 650.27 551.653 714.269 552.482 793.737C553.311 873.232 588.723 935.767 622.973 996.239C641.323 1028.64 660.306 1062.16 673.829 1097.98L670.422 1099.55C657.001 1064.05 638.119 1030.66 619.819 998.392C585.317 937.444 549.627 874.432 548.786 793.84C547.945 713.248 582.306 648.79 615.523 586.442C648.496 524.581 682.614 460.583 681.785 381.114C680.956 301.646 645.543 239.084 611.269 178.613C576.767 117.664 541.076 54.6532 540.236 -25.9387L543.957 -26.0155C544.786 53.4793 580.198 116.015 614.472 176.486C648.95 237.408 684.64 300.446 685.481 381.011Z" fill="#F7F7F7"/>
<path d="M660.481 381.011C661.321 461.603 626.967 526.062 593.756 588.409C560.788 650.27 526.702 714.268 527.531 793.736C528.36 873.231 563.766 935.767 598.01 996.238C616.357 1028.64 635.336 1062.16 648.857 1097.98L645.401 1099.55C631.982 1064.05 613.104 1030.66 594.807 998.392C560.311 937.444 524.627 874.432 523.786 793.84C522.945 713.248 557.3 648.79 590.511 586.442C623.478 524.582 657.565 460.584 656.736 381.115C655.907 301.647 620.5 239.085 586.257 178.613C551.736 117.665 516.076 54.6532 515.236 -25.9387L518.956 -26.0155C519.785 53.4793 555.191 116.015 589.435 176.487C623.956 237.408 659.64 300.446 660.481 381.011Z" fill="#F7F7F7"/>
<path d="M636.48 381.011C637.321 461.603 602.967 526.062 569.756 588.409C536.788 650.27 502.677 714.269 503.506 793.737C504.335 873.232 539.741 935.767 573.985 996.239C592.358 1028.7 611.337 1062.21 624.858 1098.01L621.401 1099.55C607.982 1064.05 589.104 1030.66 570.807 998.392C536.311 937.444 500.626 874.432 499.786 793.84C498.945 713.248 533.3 648.79 566.511 586.442C599.478 524.582 633.589 460.583 632.761 381.115C631.932 301.647 596.525 239.085 562.257 178.613C527.76 117.665 492.076 54.6532 491.236 -25.9387L494.956 -26.0155C495.785 53.4793 531.191 116.015 565.46 176.486C599.956 237.408 635.64 300.446 636.48 381.011Z" fill="#F7F7F7"/>
<path d="M611.481 382.011C612.321 462.603 577.967 527.062 544.756 589.409C511.788 651.27 477.702 715.268 478.531 794.736C479.36 874.231 514.766 936.767 549.01 997.238C567.357 1029.64 586.336 1063.16 599.857 1098.98L596.401 1100.55C582.982 1065.05 564.104 1031.66 545.807 999.392C511.311 938.444 475.627 875.432 474.786 794.84C473.945 714.248 508.3 649.79 541.511 587.442C574.478 525.582 608.565 461.584 607.736 382.115C606.907 302.647 571.501 240.085 537.257 179.613C502.736 118.665 467.076 55.6532 466.236 -24.9387L469.956 -25.0155C470.785 54.4793 506.191 117.015 540.435 177.487C574.956 238.408 610.64 301.446 611.481 382.011Z" fill="#F7F7F7"/>
<path d="M587.48 382.011C588.321 462.603 553.966 527.062 520.756 589.409C487.788 651.27 453.677 715.269 454.506 794.737C455.335 874.232 490.741 936.767 524.985 997.239C543.332 1029.64 562.312 1063.16 575.833 1098.98L572.401 1100.55C558.982 1065.05 540.104 1031.66 521.807 999.392C487.311 938.444 451.626 875.432 450.786 794.84C449.945 714.248 484.3 649.79 517.51 587.442C550.478 525.581 584.589 461.583 583.76 382.115C582.931 302.647 547.525 240.084 513.256 179.613C478.76 118.665 443.076 55.6532 442.235 -24.9387L445.955 -25.0155C446.784 54.4793 482.191 117.015 516.459 177.486C550.955 238.408 586.64 301.446 587.48 382.011Z" fill="#F7F7F7"/>
<path d="M563.481 382.011C564.321 462.603 529.967 527.062 496.756 589.409C463.788 651.27 429.677 715.269 430.506 794.737C431.335 874.232 466.741 936.767 500.985 997.239C519.332 1029.64 538.312 1063.16 551.833 1098.98L548.401 1100.55C534.982 1065.05 516.104 1031.66 497.807 999.392C463.311 938.444 427.627 875.432 426.786 794.84C425.946 714.248 460.3 649.79 493.511 587.442C526.478 525.582 560.59 461.583 559.761 382.115C558.932 302.647 523.526 240.085 489.257 179.613C454.761 118.665 419.077 55.6532 418.236 -24.9387L421.956 -25.0155C422.785 54.4793 458.192 117.015 492.46 177.486C526.956 238.408 562.641 301.446 563.481 382.011Z" fill="#F7F7F7"/>
<path d="M538.48 383.011C539.321 463.603 504.96 528.062 471.744 590.41C438.77 652.27 404.678 716.269 405.506 795.737C406.336 875.232 441.748 937.767 475.997 998.239C494.348 1030.64 513.331 1064.16 526.854 1099.98L523.422 1101.55C510.001 1066.05 491.094 1032.66 472.819 1000.39C438.317 939.444 402.626 876.432 401.786 795.84C400.945 715.248 435.306 650.79 468.523 588.442C501.496 526.581 535.589 462.583 534.76 383.115C533.931 303.647 498.518 241.085 464.269 180.613C429.742 119.665 394.076 56.6532 393.236 -23.9387L396.957 -24.0155C397.786 55.4793 433.198 118.015 467.447 178.486C501.95 239.408 537.64 302.446 538.48 383.011Z" fill="#F7F7F7"/>
<path d="M514.481 383.011C515.321 463.603 480.967 528.062 447.756 590.409C414.789 652.27 380.677 716.269 381.506 795.737C382.335 875.232 417.741 937.767 451.985 998.239C470.332 1030.64 489.312 1064.16 502.833 1099.98L499.401 1101.55C485.982 1066.05 467.079 1032.67 448.807 1000.39C414.311 939.444 378.627 876.432 377.786 795.84C376.946 715.248 411.3 650.79 444.511 588.442C477.479 526.582 511.59 462.583 510.761 383.115C509.932 303.647 474.526 241.085 440.257 180.613C405.761 119.665 370.077 56.6532 369.236 -23.9387L372.957 -24.0155C373.786 55.4793 409.192 118.015 443.46 178.486C477.956 239.408 513.641 302.446 514.481 383.011Z" fill="#F7F7F7"/>
<path d="M489.481 384.011C490.321 464.603 455.967 529.062 422.756 591.409C389.788 653.27 355.702 717.268 356.531 796.736C357.36 876.231 392.766 938.767 427.01 999.238C445.357 1031.64 464.336 1065.16 477.858 1100.98L474.401 1102.55C460.982 1067.05 442.104 1033.66 423.807 1001.39C389.311 940.444 353.627 877.432 352.786 796.84C351.945 716.248 386.3 651.79 419.511 589.442C452.478 527.582 486.565 463.584 485.736 384.115C484.907 304.647 449.501 242.085 415.257 181.613C380.76 120.665 345.076 57.6532 344.236 -22.9387L347.956 -23.0155C348.785 56.4793 384.191 119.015 418.435 179.487C452.956 240.408 488.64 303.446 489.481 384.011Z" fill="#F7F7F7"/>
<path d="M465.48 384.011C466.321 464.603 431.966 529.062 398.755 591.409C365.788 653.27 331.677 717.269 332.506 796.737C333.335 876.232 368.741 938.767 402.985 999.239C421.332 1031.64 440.311 1065.16 453.833 1100.98L450.401 1102.55C436.982 1067.05 418.079 1033.66 399.807 1001.39C365.31 940.444 329.626 877.432 328.786 796.84C327.945 716.248 362.3 651.79 395.51 589.442C428.478 527.581 462.589 463.583 461.76 384.115C460.931 304.647 425.525 242.084 391.256 181.613C356.735 120.665 321.075 57.6532 320.235 -22.9387L323.955 -23.0155C324.784 56.4793 360.19 119.015 394.459 179.486C428.955 240.408 464.64 303.446 465.48 384.011Z" fill="#F7F7F7"/>
<path d="M440.48 384.011C441.321 464.603 406.966 529.062 373.756 591.409C340.788 653.27 306.677 717.269 307.506 796.737C308.335 876.232 343.741 938.767 378.01 999.238C396.333 1031.7 415.312 1065.21 428.833 1101.01L425.401 1102.55C411.982 1067.05 393.104 1033.66 374.807 1001.39C340.311 940.444 304.627 877.432 303.786 796.84C302.945 716.248 337.3 651.79 370.51 589.442C403.478 527.582 437.565 463.583 436.736 384.115C435.907 304.647 400.5 242.085 366.257 181.613C331.735 120.665 296.076 57.6532 295.236 -22.9387L298.956 -23.0155C299.785 56.4793 335.191 119.015 369.459 179.486C403.956 240.408 439.64 303.446 440.48 384.011Z" fill="#F7F7F7"/>
<path d="M416.481 385.011C417.321 465.603 382.961 530.062 349.744 592.41C316.77 654.27 282.678 718.269 283.507 797.737C284.336 877.232 319.748 939.767 353.998 1000.24C372.348 1032.64 391.331 1066.16 404.854 1101.98L401.422 1103.55C388.001 1068.05 369.119 1034.66 350.819 1002.39C316.292 941.444 280.627 878.432 279.786 797.84C278.945 717.248 313.306 652.79 346.523 590.442C379.496 528.581 413.614 464.583 412.785 385.114C411.956 305.646 376.543 243.084 342.269 182.613C307.742 121.665 272.076 58.6532 271.236 -21.9387L274.957 -22.0155C275.786 57.4793 311.198 120.015 345.448 180.486C379.975 241.408 415.64 304.446 416.481 385.011Z" fill="#F7F7F7"/>
<path d="M392.481 385.011C393.321 465.603 358.967 530.062 325.756 592.409C292.788 654.27 258.702 718.268 259.531 797.736C260.36 877.231 295.766 939.767 330.01 1000.24C348.357 1032.64 367.336 1066.16 380.857 1101.98L377.401 1103.55C363.982 1068.05 345.104 1034.66 326.807 1002.39C292.311 941.444 256.627 878.432 255.786 797.84C254.945 717.248 289.3 652.79 322.511 590.442C355.478 528.582 389.565 464.584 388.736 385.115C387.907 305.647 352.501 243.085 318.257 182.613C283.76 121.665 248.076 58.6532 247.236 -21.9387L250.956 -22.0155C251.785 57.4793 287.191 120.015 321.435 180.487C355.956 241.408 391.64 304.446 392.481 385.011Z" fill="#F7F7F7"/>
<path d="M367.481 385.011C368.321 465.603 333.967 530.062 300.756 592.409C267.788 654.27 233.702 718.268 234.531 797.736C235.36 877.231 270.766 939.767 305.01 1000.24C323.357 1032.64 342.336 1066.16 355.858 1101.98L352.401 1103.55C338.982 1068.05 320.079 1034.67 301.807 1002.39C267.311 941.444 231.627 878.432 230.786 797.84C229.945 717.248 264.3 652.79 297.511 590.442C330.478 528.582 364.565 464.584 363.736 385.115C362.907 305.647 327.501 243.085 293.257 182.613C258.736 121.665 223.076 58.6532 222.236 -21.9387L225.956 -22.0155C226.785 57.4793 262.191 120.015 296.435 180.487C330.956 241.408 366.64 304.446 367.481 385.011Z" fill="#F7F7F7"/>
<path d="M343.481 386.011C344.321 466.603 309.967 531.062 276.756 593.409C243.788 655.27 209.702 719.268 210.531 798.736C211.36 878.231 246.766 940.767 281.01 1001.24C299.357 1033.64 318.336 1067.16 331.858 1102.98L328.401 1104.55C314.982 1069.05 296.104 1035.66 277.807 1003.39C243.311 942.444 207.627 879.432 206.786 798.84C205.945 718.248 240.3 653.79 273.511 591.442C306.478 529.582 340.565 465.584 339.736 386.115C338.907 306.647 303.501 244.085 269.257 183.613C234.736 122.665 199.076 59.6532 198.236 -20.9387L201.956 -21.0155C202.785 58.4793 238.191 121.015 272.435 181.487C306.956 242.408 342.64 305.446 343.481 386.011Z" fill="#F7F7F7"/>
<path d="M318.48 386.011C319.321 466.603 284.966 531.062 251.756 593.409C218.788 655.27 184.702 719.268 185.531 798.736C186.36 878.231 221.766 940.766 256.01 1001.24C274.357 1033.64 293.336 1067.16 306.858 1102.98L303.401 1104.55C289.982 1069.05 271.104 1035.66 252.807 1003.39C218.311 942.444 182.627 879.432 181.786 798.84C180.945 718.248 215.3 653.79 248.51 591.442C281.478 529.582 315.589 465.583 314.76 386.115C313.932 306.647 278.525 244.084 244.257 183.613C209.735 122.665 174.076 59.6532 173.235 -20.9387L176.956 -21.0155C177.785 58.4793 213.191 121.015 247.435 181.487C281.956 242.408 317.64 305.446 318.48 386.011Z" fill="#F7F7F7"/>
<path d="M294.481 386.011C295.321 466.603 260.967 531.062 227.756 593.409C194.788 655.27 160.702 719.268 161.531 798.736C162.36 878.204 197.766 940.767 232.01 1001.24C250.357 1033.64 269.336 1067.16 282.857 1102.98L279.401 1104.55C265.982 1069.05 247.104 1035.66 228.807 1003.39C194.311 942.444 158.627 879.432 157.786 798.84C156.946 718.248 191.3 653.79 224.511 591.442C257.478 529.582 291.59 465.583 290.761 386.115C289.932 306.647 254.526 244.085 220.257 183.613C185.761 122.665 150.077 59.6532 149.236 -20.9387L152.956 -21.0155C153.785 58.4793 189.192 121.015 223.435 181.487C257.956 242.408 293.641 305.446 294.481 386.011Z" fill="#F7F7F7"/>
<path d="M270.48 387.011C271.321 467.603 236.96 532.062 203.744 594.409C170.77 656.27 136.678 720.269 137.507 799.737C138.336 879.232 173.748 941.767 207.997 1002.24C226.348 1034.64 245.331 1068.16 258.854 1103.98L255.422 1105.55C242.001 1070.05 223.119 1036.66 204.819 1004.39C170.317 943.444 134.627 880.432 133.786 799.84C132.945 719.248 167.306 654.79 200.523 592.442C233.496 530.581 267.614 466.582 266.785 387.114C265.956 307.646 230.543 245.084 196.269 184.613C161.766 123.664 126.076 60.6532 125.236 -19.9387L128.956 -20.0155C129.786 59.4793 165.198 122.015 199.447 182.486C233.95 243.408 269.64 306.446 270.48 387.011Z" fill="#F7F7F7"/>
<path d="M245.481 387.011C246.321 467.603 211.967 532.062 178.756 594.409C145.788 656.27 111.702 720.268 112.531 799.736C113.36 879.231 148.766 941.767 183.01 1002.24C201.358 1034.7 220.337 1068.21 233.858 1104.01L230.401 1105.55C216.982 1070.05 198.104 1036.66 179.807 1004.39C145.311 943.444 109.627 880.432 108.786 799.84C107.945 719.248 142.3 654.79 175.511 592.442C208.478 530.582 242.565 466.584 241.736 387.116C240.907 307.647 205.501 245.085 171.257 184.613C136.736 123.665 101.077 60.6532 100.236 -19.9387L103.956 -20.0155C104.785 59.4793 140.192 122.015 174.435 182.487C208.956 243.408 244.64 306.446 245.481 387.011Z" fill="#F7F7F7"/>
<path d="M221.48 387.011C222.321 467.603 187.966 532.062 154.756 594.409C121.788 656.27 87.7016 720.268 88.5305 799.736C89.3596 879.231 124.766 941.766 159.009 1002.24C177.358 1034.7 196.337 1068.21 209.858 1104.01L206.401 1105.55C192.982 1070.05 174.079 1036.67 155.807 1004.39C121.31 943.444 85.6264 880.432 84.7858 799.84C83.9452 719.248 118.3 654.79 151.51 592.442C184.478 530.582 218.564 466.583 217.735 387.115C216.907 307.647 181.5 245.085 147.256 184.613C112.76 123.665 77.0757 60.6532 76.2351 -19.9387L79.9553 -20.0155C80.7845 59.4793 116.191 122.015 150.434 182.487C184.955 243.408 220.64 306.446 221.48 387.011Z" fill="#F7F7F7"/>
<path d="M196.48 388.011C197.321 468.603 162.966 533.062 129.756 595.409C96.7881 657.27 62.7017 721.268 63.5305 800.736C64.3597 880.231 99.7659 942.766 134.009 1003.24C152.358 1035.7 171.337 1069.21 184.858 1105.01L181.401 1106.55C167.982 1071.05 149.104 1037.66 130.807 1005.39C96.3105 944.444 60.6264 881.432 59.7858 800.84C58.9453 720.248 93.2998 655.79 126.51 593.442C159.478 531.582 193.564 467.583 192.736 388.115C191.907 308.647 156.5 246.085 122.257 185.613C87.7352 124.665 52.076 61.6532 51.2354 -18.9387L54.9556 -19.0155C55.7848 60.4793 91.1909 123.015 125.435 183.487C159.956 244.408 195.64 307.446 196.48 388.011Z" fill="#F7F7F7"/>
<path d="M172.48 388.011C173.321 468.603 138.966 533.062 105.756 595.409C72.7882 657.27 38.677 721.269 39.5058 800.737C40.3349 880.232 75.7411 942.767 109.985 1003.24C128.333 1035.7 147.312 1069.21 160.833 1105.01L157.401 1106.55C143.982 1071.05 125.104 1037.66 106.807 1005.39C72.3105 944.444 36.6265 881.432 35.7859 800.84C34.9453 720.248 69.2998 655.79 102.51 593.442C135.478 531.582 169.565 467.584 168.736 388.115C167.907 308.647 132.5 246.085 98.2568 185.613C63.7602 124.665 28.0762 61.6532 27.2356 -18.9387L30.9558 -19.0155C31.7849 60.4793 67.1911 123.015 101.459 183.486C135.956 244.408 171.64 307.446 172.48 388.011Z" fill="#F7F7F7"/>
<path d="M147.48 390.011C148.321 470.603 113.966 535.062 80.7556 597.409C47.788 659.27 13.6768 723.269 14.5057 802.737C15.3348 882.232 50.741 944.767 84.9846 1005.24C103.333 1037.7 122.312 1071.21 135.833 1107.01L132.401 1108.55C118.982 1073.05 100.104 1039.66 81.807 1007.39C47.3104 946.444 11.6264 883.432 10.7858 802.84C9.94516 722.248 44.2996 657.79 77.5102 595.442C110.478 533.582 144.589 469.583 143.76 390.115C142.931 310.647 107.525 248.084 73.2564 187.613C38.7598 126.665 3.07575 63.6532 2.23514 -16.9387L5.95532 -17.0155C6.78448 62.4793 42.1907 125.015 76.4591 185.486C110.955 246.408 146.64 309.446 147.48 390.011Z" fill="#F7F7F7"/>
<path d="M123.48 390.011C124.321 470.603 89.9663 535.062 56.7557 597.409C23.7881 659.27 -10.2983 723.268 -9.46947 802.736C-8.64032 882.231 26.7659 944.766 61.0095 1005.24C79.3575 1037.7 98.3368 1071.21 111.858 1107.01L108.426 1108.55C95.0071 1073.05 76.1036 1039.66 57.8319 1007.39C23.3105 946.444 -12.3736 883.432 -13.2142 802.84C-14.0548 722.248 20.2997 657.79 53.5103 595.442C86.478 533.582 120.564 469.583 119.736 390.115C118.907 310.647 83.5002 248.085 49.2566 187.613C14.7352 126.665 -20.924 63.6532 -21.7646 -16.9387L-18.0445 -17.0155C-17.2153 62.4793 18.1909 125.015 52.4345 185.487C86.9556 246.408 122.64 309.446 123.48 390.011Z" fill="#F7F7F7"/>
<path d="M95.7937 388.525C96.6235 469.143 63.1629 533.614 30.7922 595.973C13.565 629.236 -4.27916 663.609 -16.6173 699.929L-20.0152 698.528C-7.55949 661.884 10.3558 627.376 27.6786 594.004C59.7881 532.105 93.012 468.121 92.1936 388.6C91.3751 309.079 56.8728 246.514 23.5035 186.013C5.47717 153.381 -13.1409 119.611 -26.3453 83.5047L-22.9778 81.9617C-9.89744 117.749 8.64645 151.361 26.575 183.887C60.1909 244.865 94.9642 307.933 95.7937 388.525Z" fill="#F7F7F7"/>
<path d="M87.9621 1107.37L84.5402 1108.91C71.2644 1073.44 52.5836 1040.09 34.4789 1007.84C16.223 975.233 -2.6822 941.539 -16.0867 905.481L-12.6648 903.938C0.614013 939.704 19.4442 973.266 37.6494 1005.72C55.8048 1038.12 74.5852 1071.6 87.9621 1107.37Z" fill="#F7F7F7"/>
<path d="M73.3727 388.984C74.2043 469.712 39.8852 534.287 6.68404 596.748C-1.4825 612.119 -9.94077 628.032 -17.7302 643.931L-21.0199 642.07C-13.2062 626.117 -4.74821 610.177 3.44282 594.778C36.3765 532.806 70.4526 468.692 69.6323 389.062C68.812 309.433 33.4551 246.798 -0.765927 186.205C-9.27088 171.129 -18.0533 155.576 -26.1922 139.956L-22.9423 137.958C-14.829 153.498 -6.04657 169.051 2.43333 184.1C36.9067 245.144 72.5414 308.282 73.3727 388.984Z" fill="#F7F7F7"/>
<path d="M63.9677 1107.89L60.5547 1109.44C47.3117 1073.9 28.6778 1040.48 10.643 1008.18C2.23669 993.115 -6.44418 977.545 -14.5132 961.936L-11.3007 959.939C-3.28117 975.496 5.37493 991.039 13.781 1006.08C31.8906 1038.51 50.6238 1072.06 63.9677 1107.89Z" fill="#F7F7F7"/>
<path d="M49.8578 390.487C50.6898 471.084 15.8976 535.564 -17.7613 597.932L-21.021 595.966C12.3664 534.059 46.9125 470.066 46.0919 390.566C45.2712 311.065 9.4443 248.542 -25.2062 188.082L-21.9887 185.954C12.9181 246.917 49.0261 309.916 49.8578 390.487Z" fill="#F7F7F7"/>
<path d="M38.9732 1108.41L35.5808 1109.97C22.4369 1074.2 3.88619 1040.59 -14.0446 1008.11L-10.9505 1005.94C7.07952 1038.61 25.7046 1072.35 38.9732 1108.41Z" fill="#F7F7F7"/>
<path d="M24.3405 392.032C25.0038 455.971 3.43515 508.751 -17.7389 551.932L-21.0199 550.077C-0.0635693 507.354 21.2886 455.14 20.6347 392.109C19.9808 329.079 -2.42019 277.8 -24.2787 235.94L-21.0375 233.949C1.02334 276.259 23.6772 328.094 24.3405 392.032Z" fill="#F7F7F7"/>
<path d="M13.9791 1108.97L10.6764 1110.5C4.46456 1093.55 -3.23134 1076.22 -13.5595 1055.91L-10.4284 1053.94C-0.0508878 1074.4 7.71822 1091.89 13.9791 1108.97Z" fill="#F7F7F7"/>
<path d="M-0.0790327 391.033C0.276782 424.983 -5.73388 458.637 -18.423 493.926L-22.0154 492.528C-9.50013 457.724 -3.56107 424.554 -3.91156 391.111C-4.26204 357.669 -10.8681 324.757 -24.1329 290.483L-20.5713 288.938C-7.14788 323.717 -0.434567 357.109 -0.0790327 391.033Z" fill="#F7F7F7"/>
</g>
</g>
</svg>
